<mxfile host="app.diagrams.net" modified="2024-03-27T04:06:41.271Z" agent="Mozilla/5.0 (Windows NT 10.0; Win64; x64) AppleWebKit/537.36 (KHTML, like Gecko) Chrome/123.0.0.0 Safari/537.36" etag="OwymI9PsmxzgcQPFP-ka" version="24.2.0" type="github">
  <diagram name="Page-1" id="9R9QBcaIG3jDJkiYUd2G">
    <mxGraphModel dx="1393" dy="843" grid="1" gridSize="10" guides="1" tooltips="1" connect="1" arrows="1" fold="1" page="1" pageScale="1" pageWidth="850" pageHeight="1100" math="0" shadow="0">
      <root>
        <mxCell id="0" />
        <mxCell id="1" parent="0" />
        <mxCell id="Pk0htFhTyhocqy62iQJ8-1" value="Cloud" style="points=[[0,0],[0.25,0],[0.5,0],[0.75,0],[1,0],[1,0.25],[1,0.5],[1,0.75],[1,1],[0.75,1],[0.5,1],[0.25,1],[0,1],[0,0.75],[0,0.5],[0,0.25]];outlineConnect=0;gradientColor=none;html=1;whiteSpace=wrap;fontSize=8;fontStyle=0;container=1;pointerEvents=0;collapsible=0;recursiveResize=0;shape=mxgraph.aws4.group;grIcon=mxgraph.aws4.group_aws_cloud_alt;strokeColor=default;fillColor=none;verticalAlign=top;align=left;spacingLeft=28;fontColor=#232F3E;dashed=0;" vertex="1" parent="1">
          <mxGeometry x="40" y="160" width="760" height="560" as="geometry" />
        </mxCell>
        <mxCell id="Pk0htFhTyhocqy62iQJ8-2" value="AWS Account" style="points=[[0,0],[0.25,0],[0.5,0],[0.75,0],[1,0],[1,0.25],[1,0.5],[1,0.75],[1,1],[0.75,1],[0.5,1],[0.25,1],[0,1],[0,0.75],[0,0.5],[0,0.25]];outlineConnect=0;gradientColor=none;html=1;whiteSpace=wrap;fontSize=12;fontStyle=0;container=1;pointerEvents=0;collapsible=0;recursiveResize=0;shape=mxgraph.aws4.group;grIcon=mxgraph.aws4.group_account;strokeColor=#CD2264;fillColor=none;verticalAlign=top;align=left;spacingLeft=30;fontColor=#CD2264;dashed=0;" vertex="1" parent="Pk0htFhTyhocqy62iQJ8-1">
          <mxGeometry x="30" y="80" width="530" height="440" as="geometry" />
        </mxCell>
        <mxCell id="Pk0htFhTyhocqy62iQJ8-3" value="Region" style="points=[[0,0],[0.25,0],[0.5,0],[0.75,0],[1,0],[1,0.25],[1,0.5],[1,0.75],[1,1],[0.75,1],[0.5,1],[0.25,1],[0,1],[0,0.75],[0,0.5],[0,0.25]];outlineConnect=0;gradientColor=none;html=1;whiteSpace=wrap;fontSize=5;fontStyle=1;container=1;pointerEvents=0;collapsible=0;recursiveResize=0;shape=mxgraph.aws4.group;grIcon=mxgraph.aws4.group_region;strokeColor=#00A4A6;fillColor=none;verticalAlign=top;align=left;spacingLeft=30;fontColor=#147EBA;dashed=1;" vertex="1" parent="Pk0htFhTyhocqy62iQJ8-1">
          <mxGeometry x="20" y="40" width="730" height="500" as="geometry" />
        </mxCell>
        <mxCell id="Pk0htFhTyhocqy62iQJ8-25" value="Upload and Sync" style="rounded=1;whiteSpace=wrap;html=1;fontFamily=Helvetica;fontSize=7;fontColor=#333333;labelBackgroundColor=none;fillColor=#f5f5f5;strokeColor=#666666;dashed=1;arcSize=0;align=left;verticalAlign=top;fontStyle=1;spacingLeft=8;" vertex="1" parent="Pk0htFhTyhocqy62iQJ8-3">
          <mxGeometry x="260" y="300" width="260" height="90" as="geometry" />
        </mxCell>
        <mxCell id="Pk0htFhTyhocqy62iQJ8-6" style="edgeStyle=orthogonalEdgeStyle;rounded=0;orthogonalLoop=1;jettySize=auto;html=1;endArrow=blockThin;endFill=1;strokeColor=#808080;" edge="1" parent="Pk0htFhTyhocqy62iQJ8-3" source="Pk0htFhTyhocqy62iQJ8-4" target="Pk0htFhTyhocqy62iQJ8-5">
          <mxGeometry relative="1" as="geometry" />
        </mxCell>
        <mxCell id="Pk0htFhTyhocqy62iQJ8-4" value="CloudFront" style="sketch=0;points=[[0,0,0],[0.25,0,0],[0.5,0,0],[0.75,0,0],[1,0,0],[0,1,0],[0.25,1,0],[0.5,1,0],[0.75,1,0],[1,1,0],[0,0.25,0],[0,0.5,0],[0,0.75,0],[1,0.25,0],[1,0.5,0],[1,0.75,0]];outlineConnect=0;fontColor=#232F3E;fillColor=#8C4FFF;strokeColor=#ffffff;dashed=0;verticalLabelPosition=bottom;verticalAlign=top;align=center;html=1;fontSize=9;fontStyle=0;aspect=fixed;shape=mxgraph.aws4.resourceIcon;resIcon=mxgraph.aws4.cloudfront;" vertex="1" parent="Pk0htFhTyhocqy62iQJ8-3">
          <mxGeometry x="60" y="180.5" width="50" height="50" as="geometry" />
        </mxCell>
        <mxCell id="Pk0htFhTyhocqy62iQJ8-8" style="edgeStyle=orthogonalEdgeStyle;rounded=0;orthogonalLoop=1;jettySize=auto;html=1;strokeColor=#808080;align=center;verticalAlign=middle;fontFamily=Helvetica;fontSize=11;fontColor=default;labelBackgroundColor=default;endArrow=blockThin;endFill=1;" edge="1" parent="Pk0htFhTyhocqy62iQJ8-3" source="Pk0htFhTyhocqy62iQJ8-5" target="Pk0htFhTyhocqy62iQJ8-7">
          <mxGeometry relative="1" as="geometry" />
        </mxCell>
        <mxCell id="Pk0htFhTyhocqy62iQJ8-12" style="edgeStyle=orthogonalEdgeStyle;rounded=0;orthogonalLoop=1;jettySize=auto;html=1;strokeColor=#808080;align=center;verticalAlign=middle;fontFamily=Helvetica;fontSize=11;fontColor=default;labelBackgroundColor=default;endArrow=blockThin;endFill=1;" edge="1" parent="Pk0htFhTyhocqy62iQJ8-3" source="Pk0htFhTyhocqy62iQJ8-5" target="Pk0htFhTyhocqy62iQJ8-10">
          <mxGeometry relative="1" as="geometry" />
        </mxCell>
        <mxCell id="Pk0htFhTyhocqy62iQJ8-5" value="API Gateway" style="sketch=0;points=[[0,0,0],[0.25,0,0],[0.5,0,0],[0.75,0,0],[1,0,0],[0,1,0],[0.25,1,0],[0.5,1,0],[0.75,1,0],[1,1,0],[0,0.25,0],[0,0.5,0],[0,0.75,0],[1,0.25,0],[1,0.5,0],[1,0.75,0]];outlineConnect=0;fontColor=#232F3E;fillColor=#E7157B;strokeColor=#ffffff;dashed=0;verticalLabelPosition=bottom;verticalAlign=top;align=center;html=1;fontSize=8;fontStyle=0;aspect=fixed;shape=mxgraph.aws4.resourceIcon;resIcon=mxgraph.aws4.api_gateway;" vertex="1" parent="Pk0htFhTyhocqy62iQJ8-3">
          <mxGeometry x="180" y="180.5" width="50" height="50" as="geometry" />
        </mxCell>
        <mxCell id="Pk0htFhTyhocqy62iQJ8-7" value="Firewall" style="sketch=0;points=[[0,0,0],[0.25,0,0],[0.5,0,0],[0.75,0,0],[1,0,0],[0,1,0],[0.25,1,0],[0.5,1,0],[0.75,1,0],[1,1,0],[0,0.25,0],[0,0.5,0],[0,0.75,0],[1,0.25,0],[1,0.5,0],[1,0.75,0]];outlineConnect=0;fontColor=#232F3E;fillColor=#DD344C;strokeColor=#ffffff;dashed=0;verticalLabelPosition=bottom;verticalAlign=top;align=center;html=1;fontSize=8;fontStyle=0;aspect=fixed;shape=mxgraph.aws4.resourceIcon;resIcon=mxgraph.aws4.waf;" vertex="1" parent="Pk0htFhTyhocqy62iQJ8-3">
          <mxGeometry x="180" y="80" width="50" height="50" as="geometry" />
        </mxCell>
        <mxCell id="Pk0htFhTyhocqy62iQJ8-9" value="VPC" style="points=[[0,0],[0.25,0],[0.5,0],[0.75,0],[1,0],[1,0.25],[1,0.5],[1,0.75],[1,1],[0.75,1],[0.5,1],[0.25,1],[0,1],[0,0.75],[0,0.5],[0,0.25]];outlineConnect=0;gradientColor=none;html=1;whiteSpace=wrap;fontSize=12;fontStyle=0;container=1;pointerEvents=0;collapsible=0;recursiveResize=0;shape=mxgraph.aws4.group;grIcon=mxgraph.aws4.group_vpc2;strokeColor=#8C4FFF;fillColor=none;verticalAlign=top;align=left;spacingLeft=30;fontColor=#AAB7B8;dashed=0;fontFamily=Helvetica;labelBackgroundColor=default;" vertex="1" parent="Pk0htFhTyhocqy62iQJ8-3">
          <mxGeometry x="300" y="120" width="180" height="160" as="geometry" />
        </mxCell>
        <mxCell id="Pk0htFhTyhocqy62iQJ8-11" value="" style="rounded=1;arcSize=10;dashed=1;strokeColor=#ff0000;fillColor=none;gradientColor=none;dashPattern=8 4;strokeWidth=2;fontFamily=Helvetica;fontSize=11;fontColor=default;labelBackgroundColor=default;" vertex="1" parent="Pk0htFhTyhocqy62iQJ8-9">
          <mxGeometry x="20" y="31" width="130" height="109" as="geometry" />
        </mxCell>
        <mxCell id="Pk0htFhTyhocqy62iQJ8-10" value="AWS Lambda" style="sketch=0;points=[[0,0,0],[0.25,0,0],[0.5,0,0],[0.75,0,0],[1,0,0],[0,1,0],[0.25,1,0],[0.5,1,0],[0.75,1,0],[1,1,0],[0,0.25,0],[0,0.5,0],[0,0.75,0],[1,0.25,0],[1,0.5,0],[1,0.75,0]];outlineConnect=0;fontColor=#232F3E;fillColor=#ED7100;strokeColor=#ffffff;dashed=0;verticalLabelPosition=bottom;verticalAlign=top;align=center;html=1;fontSize=8;fontStyle=0;aspect=fixed;shape=mxgraph.aws4.resourceIcon;resIcon=mxgraph.aws4.lambda;fontFamily=Helvetica;labelBackgroundColor=default;" vertex="1" parent="Pk0htFhTyhocqy62iQJ8-9">
          <mxGeometry x="65" y="60.5" width="50" height="50" as="geometry" />
        </mxCell>
        <mxCell id="Pk0htFhTyhocqy62iQJ8-66" value="4" style="ellipse;whiteSpace=wrap;html=1;aspect=fixed;fontFamily=Helvetica;fontSize=6;labelBackgroundColor=none;fillColor=#dae8fc;strokeColor=#6c8ebf;align=center;shadow=0;perimeterSpacing=0;" vertex="1" parent="Pk0htFhTyhocqy62iQJ8-9">
          <mxGeometry x="30" y="60.5" width="15" height="15" as="geometry" />
        </mxCell>
        <mxCell id="Pk0htFhTyhocqy62iQJ8-24" style="edgeStyle=orthogonalEdgeStyle;rounded=0;orthogonalLoop=1;jettySize=auto;html=1;strokeColor=#808080;align=center;verticalAlign=middle;fontFamily=Helvetica;fontSize=11;fontColor=default;labelBackgroundColor=default;endArrow=blockThin;endFill=1;" edge="1" parent="Pk0htFhTyhocqy62iQJ8-3" source="Pk0htFhTyhocqy62iQJ8-13" target="Pk0htFhTyhocqy62iQJ8-23">
          <mxGeometry relative="1" as="geometry" />
        </mxCell>
        <mxCell id="Pk0htFhTyhocqy62iQJ8-13" value="Private&lt;br style=&quot;font-size: 8px;&quot;&gt;Endpoint" style="sketch=0;outlineConnect=0;fontColor=#232F3E;gradientColor=none;fillColor=#8C4FFF;strokeColor=none;dashed=0;verticalLabelPosition=bottom;verticalAlign=top;align=center;html=1;fontSize=8;fontStyle=0;aspect=fixed;pointerEvents=1;shape=mxgraph.aws4.endpoints;fontFamily=Helvetica;labelBackgroundColor=default;" vertex="1" parent="Pk0htFhTyhocqy62iQJ8-3">
          <mxGeometry x="480" y="185.75" width="39.5" height="39.5" as="geometry" />
        </mxCell>
        <mxCell id="Pk0htFhTyhocqy62iQJ8-14" style="edgeStyle=orthogonalEdgeStyle;rounded=0;orthogonalLoop=1;jettySize=auto;html=1;strokeColor=#808080;align=center;verticalAlign=middle;fontFamily=Helvetica;fontSize=11;fontColor=default;labelBackgroundColor=default;endArrow=blockThin;endFill=1;" edge="1" parent="Pk0htFhTyhocqy62iQJ8-3" source="Pk0htFhTyhocqy62iQJ8-10" target="Pk0htFhTyhocqy62iQJ8-13">
          <mxGeometry relative="1" as="geometry" />
        </mxCell>
        <mxCell id="Pk0htFhTyhocqy62iQJ8-15" value="AWS Account" style="points=[[0,0],[0.25,0],[0.5,0],[0.75,0],[1,0],[1,0.25],[1,0.5],[1,0.75],[1,1],[0.75,1],[0.5,1],[0.25,1],[0,1],[0,0.75],[0,0.5],[0,0.25]];outlineConnect=0;gradientColor=none;html=1;whiteSpace=wrap;fontSize=12;fontStyle=0;container=1;pointerEvents=0;collapsible=0;recursiveResize=0;shape=mxgraph.aws4.group;grIcon=mxgraph.aws4.group_account;strokeColor=#CD2264;fillColor=none;verticalAlign=top;align=left;spacingLeft=30;fontColor=#CD2264;dashed=0;fontFamily=Helvetica;labelBackgroundColor=default;" vertex="1" parent="Pk0htFhTyhocqy62iQJ8-3">
          <mxGeometry x="560" y="40" width="170" height="440" as="geometry" />
        </mxCell>
        <mxCell id="Pk0htFhTyhocqy62iQJ8-36" style="edgeStyle=orthogonalEdgeStyle;rounded=0;orthogonalLoop=1;jettySize=auto;html=1;strokeColor=#808080;align=center;verticalAlign=middle;fontFamily=Helvetica;fontSize=11;fontColor=default;labelBackgroundColor=default;endArrow=blockThin;endFill=1;" edge="1" parent="Pk0htFhTyhocqy62iQJ8-15" source="Pk0htFhTyhocqy62iQJ8-23" target="Pk0htFhTyhocqy62iQJ8-35">
          <mxGeometry relative="1" as="geometry" />
        </mxCell>
        <mxCell id="Pk0htFhTyhocqy62iQJ8-23" value="AWS Bedrock&lt;br&gt;KnowledgeBase" style="sketch=0;points=[[0,0,0],[0.25,0,0],[0.5,0,0],[0.75,0,0],[1,0,0],[0,1,0],[0.25,1,0],[0.5,1,0],[0.75,1,0],[1,1,0],[0,0.25,0],[0,0.5,0],[0,0.75,0],[1,0.25,0],[1,0.5,0],[1,0.75,0]];outlineConnect=0;fontColor=#232F3E;fillColor=#01A88D;strokeColor=#ffffff;dashed=0;verticalLabelPosition=bottom;verticalAlign=top;align=center;html=1;fontSize=8;fontStyle=0;aspect=fixed;shape=mxgraph.aws4.resourceIcon;resIcon=mxgraph.aws4.bedrock;fontFamily=Helvetica;labelBackgroundColor=default;" vertex="1" parent="Pk0htFhTyhocqy62iQJ8-15">
          <mxGeometry x="20" y="140.5" width="50" height="50" as="geometry" />
        </mxCell>
        <mxCell id="Pk0htFhTyhocqy62iQJ8-30" value="" style="sketch=0;pointerEvents=1;shadow=0;dashed=0;html=1;strokeColor=none;fillColor=#505050;labelPosition=center;verticalLabelPosition=bottom;verticalAlign=top;outlineConnect=0;align=center;shape=mxgraph.office.communications.exchange_active_sync;fillColor=#2072B8;fontFamily=Helvetica;fontSize=11;fontColor=default;labelBackgroundColor=default;" vertex="1" parent="Pk0htFhTyhocqy62iQJ8-15">
          <mxGeometry x="10" y="270" width="30" height="30" as="geometry" />
        </mxCell>
        <mxCell id="Pk0htFhTyhocqy62iQJ8-33" value="Opensearch" style="sketch=0;points=[[0,0,0],[0.25,0,0],[0.5,0,0],[0.75,0,0],[1,0,0],[0,1,0],[0.25,1,0],[0.5,1,0],[0.75,1,0],[1,1,0],[0,0.25,0],[0,0.5,0],[0,0.75,0],[1,0.25,0],[1,0.5,0],[1,0.75,0]];outlineConnect=0;fontColor=#232F3E;fillColor=#8C4FFF;strokeColor=#ffffff;dashed=0;verticalLabelPosition=bottom;verticalAlign=top;align=center;html=1;fontSize=8;fontStyle=0;aspect=fixed;shape=mxgraph.aws4.resourceIcon;resIcon=mxgraph.aws4.elasticsearch_service;fontFamily=Helvetica;labelBackgroundColor=default;" vertex="1" parent="Pk0htFhTyhocqy62iQJ8-15">
          <mxGeometry x="90" y="140.5" width="50" height="50" as="geometry" />
        </mxCell>
        <mxCell id="Pk0htFhTyhocqy62iQJ8-34" style="edgeStyle=orthogonalEdgeStyle;rounded=0;orthogonalLoop=1;jettySize=auto;html=1;entryX=0;entryY=0.5;entryDx=0;entryDy=0;entryPerimeter=0;strokeColor=#808080;align=center;verticalAlign=middle;fontFamily=Helvetica;fontSize=11;fontColor=default;labelBackgroundColor=default;endArrow=blockThin;endFill=1;" edge="1" parent="Pk0htFhTyhocqy62iQJ8-15" source="Pk0htFhTyhocqy62iQJ8-23" target="Pk0htFhTyhocqy62iQJ8-33">
          <mxGeometry relative="1" as="geometry" />
        </mxCell>
        <mxCell id="Pk0htFhTyhocqy62iQJ8-35" value="AWS Bedrock&lt;br&gt;LLM" style="sketch=0;points=[[0,0,0],[0.25,0,0],[0.5,0,0],[0.75,0,0],[1,0,0],[0,1,0],[0.25,1,0],[0.5,1,0],[0.75,1,0],[1,1,0],[0,0.25,0],[0,0.5,0],[0,0.75,0],[1,0.25,0],[1,0.5,0],[1,0.75,0]];outlineConnect=0;fontColor=#232F3E;fillColor=#01A88D;strokeColor=#ffffff;dashed=0;verticalLabelPosition=bottom;verticalAlign=top;align=center;html=1;fontSize=8;fontStyle=0;aspect=fixed;shape=mxgraph.aws4.resourceIcon;resIcon=mxgraph.aws4.bedrock;fontFamily=Helvetica;labelBackgroundColor=default;" vertex="1" parent="Pk0htFhTyhocqy62iQJ8-15">
          <mxGeometry x="20" y="40" width="50" height="50" as="geometry" />
        </mxCell>
        <mxCell id="Pk0htFhTyhocqy62iQJ8-56" value="Guardrails" style="sketch=0;points=[[0,0,0],[0.25,0,0],[0.5,0,0],[0.75,0,0],[1,0,0],[0,1,0],[0.25,1,0],[0.5,1,0],[0.75,1,0],[1,1,0],[0,0.25,0],[0,0.5,0],[0,0.75,0],[1,0.25,0],[1,0.5,0],[1,0.75,0]];points=[[0,0,0],[0.25,0,0],[0.5,0,0],[0.75,0,0],[1,0,0],[0,1,0],[0.25,1,0],[0.5,1,0],[0.75,1,0],[1,1,0],[0,0.25,0],[0,0.5,0],[0,0.75,0],[1,0.25,0],[1,0.5,0],[1,0.75,0]];outlineConnect=0;fontColor=#232F3E;fillColor=#E7157B;strokeColor=#ffffff;dashed=0;verticalLabelPosition=bottom;verticalAlign=top;align=center;html=1;fontSize=8;fontStyle=0;aspect=fixed;shape=mxgraph.aws4.resourceIcon;resIcon=mxgraph.aws4.management_and_governance;fontFamily=Helvetica;labelBackgroundColor=default;" vertex="1" parent="Pk0htFhTyhocqy62iQJ8-15">
          <mxGeometry x="90" y="40" width="50" height="50" as="geometry" />
        </mxCell>
        <mxCell id="Pk0htFhTyhocqy62iQJ8-57" style="edgeStyle=orthogonalEdgeStyle;rounded=0;orthogonalLoop=1;jettySize=auto;html=1;entryX=0;entryY=0.5;entryDx=0;entryDy=0;entryPerimeter=0;strokeColor=#808080;align=center;verticalAlign=middle;fontFamily=Helvetica;fontSize=11;fontColor=default;labelBackgroundColor=default;endArrow=blockThin;endFill=1;" edge="1" parent="Pk0htFhTyhocqy62iQJ8-15" source="Pk0htFhTyhocqy62iQJ8-35" target="Pk0htFhTyhocqy62iQJ8-56">
          <mxGeometry relative="1" as="geometry" />
        </mxCell>
        <mxCell id="Pk0htFhTyhocqy62iQJ8-58" value="2" style="ellipse;whiteSpace=wrap;html=1;aspect=fixed;fontFamily=Helvetica;fontSize=6;labelBackgroundColor=none;align=center;shadow=0;perimeterSpacing=0;fillColor=#dae8fc;strokeColor=#6c8ebf;" vertex="1" parent="Pk0htFhTyhocqy62iQJ8-15">
          <mxGeometry x="90" y="120" width="15" height="15" as="geometry" />
        </mxCell>
        <mxCell id="Pk0htFhTyhocqy62iQJ8-67" value="5" style="ellipse;whiteSpace=wrap;html=1;aspect=fixed;fontFamily=Helvetica;fontSize=6;labelBackgroundColor=none;fillColor=#dae8fc;strokeColor=#6c8ebf;align=center;shadow=0;perimeterSpacing=0;" vertex="1" parent="Pk0htFhTyhocqy62iQJ8-15">
          <mxGeometry x="5" y="120" width="15" height="15" as="geometry" />
        </mxCell>
        <mxCell id="Pk0htFhTyhocqy62iQJ8-68" value="6" style="ellipse;whiteSpace=wrap;html=1;aspect=fixed;fontFamily=Helvetica;fontSize=6;labelBackgroundColor=none;fillColor=#dae8fc;strokeColor=#6c8ebf;align=center;shadow=0;perimeterSpacing=0;" vertex="1" parent="Pk0htFhTyhocqy62iQJ8-15">
          <mxGeometry x="150" y="160" width="15" height="15" as="geometry" />
        </mxCell>
        <mxCell id="Pk0htFhTyhocqy62iQJ8-69" value="7" style="ellipse;whiteSpace=wrap;html=1;aspect=fixed;fontFamily=Helvetica;fontSize=6;labelBackgroundColor=none;fillColor=#dae8fc;strokeColor=#6c8ebf;align=center;shadow=0;perimeterSpacing=0;" vertex="1" parent="Pk0htFhTyhocqy62iQJ8-15">
          <mxGeometry x="5" y="40" width="15" height="15" as="geometry" />
        </mxCell>
        <mxCell id="Pk0htFhTyhocqy62iQJ8-70" value="8" style="ellipse;whiteSpace=wrap;html=1;aspect=fixed;fontFamily=Helvetica;fontSize=6;labelBackgroundColor=none;fillColor=#dae8fc;strokeColor=#6c8ebf;align=center;shadow=0;perimeterSpacing=0;" vertex="1" parent="Pk0htFhTyhocqy62iQJ8-15">
          <mxGeometry x="150" y="40" width="15" height="15" as="geometry" />
        </mxCell>
        <mxCell id="Pk0htFhTyhocqy62iQJ8-16" value="Static Hosting&lt;div style=&quot;font-size: 8px;&quot;&gt;for the Chatbot&lt;/div&gt;" style="sketch=0;points=[[0,0,0],[0.25,0,0],[0.5,0,0],[0.75,0,0],[1,0,0],[0,1,0],[0.25,1,0],[0.5,1,0],[0.75,1,0],[1,1,0],[0,0.25,0],[0,0.5,0],[0,0.75,0],[1,0.25,0],[1,0.5,0],[1,0.75,0]];outlineConnect=0;fontColor=#232F3E;fillColor=#7AA116;strokeColor=#ffffff;dashed=0;verticalLabelPosition=bottom;verticalAlign=top;align=center;html=1;fontSize=8;fontStyle=0;aspect=fixed;shape=mxgraph.aws4.resourceIcon;resIcon=mxgraph.aws4.s3;fontFamily=Helvetica;labelBackgroundColor=default;" vertex="1" parent="Pk0htFhTyhocqy62iQJ8-3">
          <mxGeometry x="60" y="280" width="50" height="50" as="geometry" />
        </mxCell>
        <mxCell id="Pk0htFhTyhocqy62iQJ8-17" style="edgeStyle=orthogonalEdgeStyle;rounded=0;orthogonalLoop=1;jettySize=auto;html=1;entryX=0.5;entryY=0;entryDx=0;entryDy=0;entryPerimeter=0;strokeColor=#808080;align=center;verticalAlign=middle;fontFamily=Helvetica;fontSize=11;fontColor=default;labelBackgroundColor=default;endArrow=blockThin;endFill=1;" edge="1" parent="Pk0htFhTyhocqy62iQJ8-3" source="Pk0htFhTyhocqy62iQJ8-4" target="Pk0htFhTyhocqy62iQJ8-16">
          <mxGeometry relative="1" as="geometry" />
        </mxCell>
        <mxCell id="Pk0htFhTyhocqy62iQJ8-18" value="Document Datastore" style="sketch=0;points=[[0,0,0],[0.25,0,0],[0.5,0,0],[0.75,0,0],[1,0,0],[0,1,0],[0.25,1,0],[0.5,1,0],[0.75,1,0],[1,1,0],[0,0.25,0],[0,0.5,0],[0,0.75,0],[1,0.25,0],[1,0.5,0],[1,0.75,0]];outlineConnect=0;fontColor=#232F3E;fillColor=#7AA116;strokeColor=#ffffff;dashed=0;verticalLabelPosition=bottom;verticalAlign=top;align=center;html=1;fontSize=8;fontStyle=0;aspect=fixed;shape=mxgraph.aws4.resourceIcon;resIcon=mxgraph.aws4.s3;fontFamily=Helvetica;labelBackgroundColor=none;" vertex="1" parent="Pk0htFhTyhocqy62iQJ8-3">
          <mxGeometry x="430" y="320" width="50" height="50" as="geometry" />
        </mxCell>
        <mxCell id="Pk0htFhTyhocqy62iQJ8-26" style="edgeStyle=orthogonalEdgeStyle;rounded=0;orthogonalLoop=1;jettySize=auto;html=1;strokeColor=#808080;align=center;verticalAlign=middle;fontFamily=Helvetica;fontSize=11;fontColor=default;labelBackgroundColor=default;endArrow=blockThin;endFill=1;" edge="1" parent="Pk0htFhTyhocqy62iQJ8-3" source="Pk0htFhTyhocqy62iQJ8-21" target="Pk0htFhTyhocqy62iQJ8-18">
          <mxGeometry relative="1" as="geometry" />
        </mxCell>
        <mxCell id="Pk0htFhTyhocqy62iQJ8-21" value="AWS Macie" style="sketch=0;points=[[0,0,0],[0.25,0,0],[0.5,0,0],[0.75,0,0],[1,0,0],[0,1,0],[0.25,1,0],[0.5,1,0],[0.75,1,0],[1,1,0],[0,0.25,0],[0,0.5,0],[0,0.75,0],[1,0.25,0],[1,0.5,0],[1,0.75,0]];outlineConnect=0;fontColor=#232F3E;fillColor=#DD344C;strokeColor=#ffffff;dashed=0;verticalLabelPosition=bottom;verticalAlign=top;align=center;html=1;fontSize=8;fontStyle=0;aspect=fixed;shape=mxgraph.aws4.resourceIcon;resIcon=mxgraph.aws4.macie;fontFamily=Helvetica;labelBackgroundColor=none;" vertex="1" parent="Pk0htFhTyhocqy62iQJ8-3">
          <mxGeometry x="315" y="320" width="50" height="50" as="geometry" />
        </mxCell>
        <mxCell id="Pk0htFhTyhocqy62iQJ8-27" style="edgeStyle=orthogonalEdgeStyle;rounded=0;orthogonalLoop=1;jettySize=auto;html=1;strokeColor=#808080;align=center;verticalAlign=middle;fontFamily=Helvetica;fontSize=11;fontColor=default;labelBackgroundColor=default;endArrow=blockThin;endFill=1;dashed=1;dashPattern=1 1;" edge="1" parent="Pk0htFhTyhocqy62iQJ8-3" source="Pk0htFhTyhocqy62iQJ8-23" target="Pk0htFhTyhocqy62iQJ8-18">
          <mxGeometry relative="1" as="geometry">
            <Array as="points">
              <mxPoint x="605" y="345" />
            </Array>
          </mxGeometry>
        </mxCell>
        <mxCell id="Pk0htFhTyhocqy62iQJ8-43" value="CloudTrail" style="sketch=0;points=[[0,0,0],[0.25,0,0],[0.5,0,0],[0.75,0,0],[1,0,0],[0,1,0],[0.25,1,0],[0.5,1,0],[0.75,1,0],[1,1,0],[0,0.25,0],[0,0.5,0],[0,0.75,0],[1,0.25,0],[1,0.5,0],[1,0.75,0]];points=[[0,0,0],[0.25,0,0],[0.5,0,0],[0.75,0,0],[1,0,0],[0,1,0],[0.25,1,0],[0.5,1,0],[0.75,1,0],[1,1,0],[0,0.25,0],[0,0.5,0],[0,0.75,0],[1,0.25,0],[1,0.5,0],[1,0.75,0]];outlineConnect=0;fontColor=#333333;fillColor=#f5f5f5;strokeColor=#666666;dashed=0;verticalLabelPosition=bottom;verticalAlign=top;align=center;html=1;fontSize=8;fontStyle=0;aspect=fixed;shape=mxgraph.aws4.resourceIcon;resIcon=mxgraph.aws4.cloudtrail;fontFamily=Helvetica;labelBackgroundColor=default;" vertex="1" parent="Pk0htFhTyhocqy62iQJ8-3">
          <mxGeometry x="80" y="412" width="40" height="40" as="geometry" />
        </mxCell>
        <mxCell id="Pk0htFhTyhocqy62iQJ8-44" value="CloudWatch" style="sketch=0;points=[[0,0,0],[0.25,0,0],[0.5,0,0],[0.75,0,0],[1,0,0],[0,1,0],[0.25,1,0],[0.5,1,0],[0.75,1,0],[1,1,0],[0,0.25,0],[0,0.5,0],[0,0.75,0],[1,0.25,0],[1,0.5,0],[1,0.75,0]];points=[[0,0,0],[0.25,0,0],[0.5,0,0],[0.75,0,0],[1,0,0],[0,1,0],[0.25,1,0],[0.5,1,0],[0.75,1,0],[1,1,0],[0,0.25,0],[0,0.5,0],[0,0.75,0],[1,0.25,0],[1,0.5,0],[1,0.75,0]];outlineConnect=0;fontColor=#333333;fillColor=#f5f5f5;strokeColor=#666666;dashed=0;verticalLabelPosition=bottom;verticalAlign=top;align=center;html=1;fontSize=8;fontStyle=0;aspect=fixed;shape=mxgraph.aws4.resourceIcon;resIcon=mxgraph.aws4.cloudwatch_2;fontFamily=Helvetica;labelBackgroundColor=default;" vertex="1" parent="Pk0htFhTyhocqy62iQJ8-3">
          <mxGeometry x="30" y="412" width="40" height="40" as="geometry" />
        </mxCell>
        <mxCell id="Pk0htFhTyhocqy62iQJ8-45" value="KMS" style="sketch=0;points=[[0,0,0],[0.25,0,0],[0.5,0,0],[0.75,0,0],[1,0,0],[0,1,0],[0.25,1,0],[0.5,1,0],[0.75,1,0],[1,1,0],[0,0.25,0],[0,0.5,0],[0,0.75,0],[1,0.25,0],[1,0.5,0],[1,0.75,0]];outlineConnect=0;fontColor=#333333;fillColor=#f5f5f5;strokeColor=#666666;dashed=0;verticalLabelPosition=bottom;verticalAlign=top;align=center;html=1;fontSize=8;fontStyle=0;aspect=fixed;shape=mxgraph.aws4.resourceIcon;resIcon=mxgraph.aws4.key_management_service;fontFamily=Helvetica;labelBackgroundColor=default;" vertex="1" parent="Pk0htFhTyhocqy62iQJ8-3">
          <mxGeometry x="180" y="412" width="40" height="40" as="geometry" />
        </mxCell>
        <mxCell id="Pk0htFhTyhocqy62iQJ8-47" value="Cross-cutting Services" style="text;html=1;align=left;verticalAlign=middle;resizable=0;points=[];autosize=1;strokeColor=none;fillColor=none;fontFamily=Helvetica;fontSize=10;fontColor=default;labelBackgroundColor=default;fontStyle=1" vertex="1" parent="Pk0htFhTyhocqy62iQJ8-3">
          <mxGeometry x="20" y="385" width="120" height="30" as="geometry" />
        </mxCell>
        <mxCell id="Pk0htFhTyhocqy62iQJ8-51" value="IAM" style="sketch=0;points=[[0,0,0],[0.25,0,0],[0.5,0,0],[0.75,0,0],[1,0,0],[0,1,0],[0.25,1,0],[0.5,1,0],[0.75,1,0],[1,1,0],[0,0.25,0],[0,0.5,0],[0,0.75,0],[1,0.25,0],[1,0.5,0],[1,0.75,0]];outlineConnect=0;fontColor=#333333;fillColor=#f5f5f5;strokeColor=#666666;dashed=0;verticalLabelPosition=bottom;verticalAlign=top;align=center;html=1;fontSize=8;fontStyle=0;aspect=fixed;shape=mxgraph.aws4.resourceIcon;resIcon=mxgraph.aws4.identity_and_access_management;fontFamily=Helvetica;labelBackgroundColor=default;" vertex="1" parent="Pk0htFhTyhocqy62iQJ8-3">
          <mxGeometry x="130" y="412" width="40" height="40" as="geometry" />
        </mxCell>
        <mxCell id="Pk0htFhTyhocqy62iQJ8-52" value="1" style="ellipse;whiteSpace=wrap;html=1;aspect=fixed;fontFamily=Helvetica;fontSize=6;labelBackgroundColor=none;fillColor=#dae8fc;strokeColor=#6c8ebf;align=center;shadow=0;perimeterSpacing=0;" vertex="1" parent="Pk0htFhTyhocqy62iQJ8-3">
          <mxGeometry x="400" y="410" width="15" height="15" as="geometry" />
        </mxCell>
        <mxCell id="Pk0htFhTyhocqy62iQJ8-54" style="edgeStyle=orthogonalEdgeStyle;rounded=0;orthogonalLoop=1;jettySize=auto;html=1;strokeColor=#808080;align=center;verticalAlign=middle;fontFamily=Helvetica;fontSize=11;fontColor=default;labelBackgroundColor=default;endArrow=blockThin;endFill=1;" edge="1" parent="Pk0htFhTyhocqy62iQJ8-3" source="Pk0htFhTyhocqy62iQJ8-53" target="Pk0htFhTyhocqy62iQJ8-18">
          <mxGeometry relative="1" as="geometry" />
        </mxCell>
        <mxCell id="Pk0htFhTyhocqy62iQJ8-53" value="DataSync" style="sketch=0;points=[[0,0,0],[0.25,0,0],[0.5,0,0],[0.75,0,0],[1,0,0],[0,1,0],[0.25,1,0],[0.5,1,0],[0.75,1,0],[1,1,0],[0,0.25,0],[0,0.5,0],[0,0.75,0],[1,0.25,0],[1,0.5,0],[1,0.75,0]];outlineConnect=0;fontColor=#232F3E;fillColor=#01A88D;strokeColor=#ffffff;dashed=0;verticalLabelPosition=bottom;verticalAlign=top;align=center;html=1;fontSize=8;fontStyle=0;aspect=fixed;shape=mxgraph.aws4.resourceIcon;resIcon=mxgraph.aws4.datasync;fontFamily=Helvetica;labelBackgroundColor=default;" vertex="1" parent="Pk0htFhTyhocqy62iQJ8-3">
          <mxGeometry x="430" y="410" width="50" height="50" as="geometry" />
        </mxCell>
        <mxCell id="Pk0htFhTyhocqy62iQJ8-55" value="" style="rounded=1;whiteSpace=wrap;html=1;fontFamily=Helvetica;fontSize=11;fontColor=default;labelBackgroundColor=default;fillColor=none;arcSize=3;strokeColor=#808080;" vertex="1" parent="Pk0htFhTyhocqy62iQJ8-3">
          <mxGeometry x="20" y="410" width="210" height="60" as="geometry" />
        </mxCell>
        <mxCell id="Pk0htFhTyhocqy62iQJ8-59" value="3" style="ellipse;whiteSpace=wrap;html=1;aspect=fixed;fontFamily=Helvetica;fontSize=6;labelBackgroundColor=none;fillColor=#dae8fc;strokeColor=#6c8ebf;align=center;shadow=0;perimeterSpacing=0;" vertex="1" parent="Pk0htFhTyhocqy62iQJ8-3">
          <mxGeometry x="30" y="180.5" width="15" height="15" as="geometry" />
        </mxCell>
        <mxCell id="Pk0htFhTyhocqy62iQJ8-71" value="9" style="ellipse;whiteSpace=wrap;html=1;aspect=fixed;fontFamily=Helvetica;fontSize=6;labelBackgroundColor=none;fillColor=#dae8fc;strokeColor=#6c8ebf;align=center;shadow=0;perimeterSpacing=0;" vertex="1" parent="Pk0htFhTyhocqy62iQJ8-3">
          <mxGeometry x="30" y="215.5" width="15" height="15" as="geometry" />
        </mxCell>
        <mxCell id="Pk0htFhTyhocqy62iQJ8-74" value="" style="shape=image;verticalLabelPosition=bottom;labelBackgroundColor=default;verticalAlign=top;aspect=fixed;imageAspect=0;image=data:image/svg+xml,PHN2ZyB4bWxucz0iaHR0cDovL3d3dy53My5vcmcvMjAwMC9zdmciIHhtbDpzcGFjZT0icHJlc2VydmUiIHZpZXdCb3g9IjAgMCA2NjcuNSA1NDAiIHZlcnNpb249IjEuMSIgc3R5bGU9ImVuYWJsZS1iYWNrZ3JvdW5kOm5ldyAwIDAgNjY3LjUgNTQwIiB5PSIwIiB4PSIwIiBpZD0iTGF5ZXJfMSI+PHN0eWxlPi5zdDB7ZmlsbDojMDYyNDMwfTwvc3R5bGU+PHBhdGggY2xhc3M9InN0MCIgZD0iTTQzMy42IDIyMy42YzMuNC0xMi42IDEuNi0yNS44LTQuOS0zNy4xLTEzLjUtMjMuNC00My41LTMxLjQtNjYuOS0xNy45bC03Mi42IDQyYy0zLjkgMi4yLTguNCAyLjgtMTIuNyAxLjctNC4zLTEuMi03LjktMy45LTEwLjItNy44LTQuNi04LTEuOS0xOC4yIDYuMS0yMi45bDE1NC43LTg5LjNjLTkuMi03LjgtMTkuMy0xNC40LTMwLjItMTkuOGwtMTQwLjYgODEuMmMtMjMuNCAxMy41LTMxLjQgNDMuNS0xNy45IDY2LjggNi41IDExLjMgMTcuMSAxOS40IDI5LjcgMjIuOCAxMi42IDMuNCAyNS44IDEuNiAzNy4xLTQuOWw3Mi42LTQyYzgtNC42IDE4LjItMS45IDIyLjkgNi4xIDIuMiAzLjkgMi44IDguNCAxLjcgMTIuNy0xLjIgNC4zLTMuOSA3LjktNy44IDEwLjJsLTE1Mi4zIDg4YzkuNCA3LjcgMTkuOCAxNC4yIDMwLjkgMTkuM2wxMzcuNS03OS40YzExLjQtNi41IDE5LjUtMTcgMjIuOS0yOS43eiIvPjxwYXRoIGNsYXNzPSJzdDAiIGQ9Ik0yMDkgMjc0Yy0zOS43LTY4LjgtMTYuMS0xNTcuMSA1Mi43LTE5Ni44IDIyLjItMTIuOCA0Ni44LTE5LjQgNzEuOC0xOS40IDEyLjUgMCAyNS4xIDEuNiAzNy41IDUgOS4xIDIuNCAxNy44IDUuNyAyNiA5LjdsMzIuNC0xOC43Yy0xNS4yLTkuOC0zMi4xLTE3LjMtNTAuMS0yMi4xLTQ1LjUtMTIuMi05My01LjktMTMzLjggMTcuNi00MC44IDIzLjUtNjkuOSA2MS42LTgyLjEgMTA3LTEyLjIgNDUuNS01LjkgOTMgMTcuNiAxMzMuOCA4LjcgMTUuMSAxOS41IDI4LjcgMzEuOCA0MC4zbDI5LjQtMTdjLTEzLjEtMTAuOC0yNC40LTI0LjEtMzMuMi0zOS40ek00ODYuNCAxMTMuOGMtOC4zLTE0LjMtMTguMy0yNy4yLTI5LjktMzguNGwtMjkuMyAxNi45YzEyLjMgMTAuNSAyMi45IDIzLjIgMzEuMyAzNy43IDM5LjcgNjguOCAxNi4xIDE1Ny4xLTUyLjcgMTk2LjgtMzMuMyAxOS4yLTcyLjIgMjQuNC0xMDkuMyAxNC40LTgtMi4yLTE1LjgtNS0yMy4yLTguNGwtMzIuNyAxOC45YzE0LjYgOSAzMC42IDE2IDQ3LjYgMjAuNiAxNS4yIDQuMSAzMC42IDYuMSA0NS45IDYuMSAzMC41IDAgNjAuNy04IDg3LjgtMjMuNyA0MC44LTIzLjUgNjkuOS02MS42IDgyLjEtMTA3IDEyLjItNDUuNiA1LjktOTMuMS0xNy42LTEzMy45eiIvPjxwYXRoIGNsYXNzPSJzdDAiIGQ9Ik0zMzMuNyAwQzIyMi4yIDAgMTMxLjggOTAuNCAxMzEuOCAyMDEuOXM5MC40IDIwMS45IDIwMS45IDIwMS45IDIwMS45LTkwLjQgMjAxLjktMjAxLjlTNDQ1LjMgMCAzMzMuNyAwem0wIDM5MS42Yy0xMDQuNyAwLTE4OS42LTg0LjktMTg5LjYtMTg5LjYgMC0xMDQuNyA4NC45LTE4OS42IDE4OS42LTE4OS42IDEwNC43IDAgMTg5LjYgODQuOSAxODkuNiAxODkuNiAwIDEwNC43LTg0LjkgMTg5LjYtMTg5LjYgMTg5LjZ6Ii8+PGc+PHBhdGggY2xhc3M9InN0MCIgZD0iTTI4LjMgNTQwQzEyLjcgNTQwIC41IDUzMi4zIDAgNTE3LjZoMTguOGMuNSA1LjYgNCA4LjMgOSA4LjMgNS4yIDAgOC41LTIuNiA4LjUtNi44IDAtMTMuNC0zNi4yLTYuMi0zNi0zMS45IDAtMTMuNyAxMS4zLTIxLjQgMjYuNC0yMS40IDE1LjggMCAyNi40IDcuOCAyNy4yIDIxLjdIMzQuN2MtLjMtNC42LTMuNi03LjQtOC40LTcuNS00LjItLjEtNy40IDIuMS03LjQgNi42IDAgMTIuNiAzNS44IDYuOSAzNS44IDMxLjIgMCAxMi4xLTkuNSAyMi4yLTI2LjQgMjIuMnpNMTEyLjkgNDgwLjlIODYuMnYxNC43aDIzLjZ2MTMuNkg4Ni4ydjE1LjloMjYuN3YxNC4xSDY4LjZ2LTcyLjVIMTEzdjE0LjJ6TTE2MC44IDQ2NmMxNy4yIDAgMzAuMiA5LjcgMzQuNCAyNS40aC0xOS40Yy0zLTYuMi04LjUtOS4zLTE1LjItOS4zLTEwLjggMC0xOC4zIDguMS0xOC4zIDIwLjkgMCAxMi44IDcuNCAyMC45IDE4LjMgMjAuOSA2LjcgMCAxMi4yLTMuMSAxNS4yLTkuM2gxOS40Yy00LjEgMTUuNy0xNy4xIDI1LjMtMzQuNCAyNS4zLTIxLjQgMC0zNi40LTE1LjItMzYuNC0zNi45czE1LjEtMzcgMzYuNC0zN3pNMjA4LjggNDY2LjhoMTcuN3Y0My40YzAgOC42IDQuMiAxMy41IDEyLjYgMTMuNXMxMi44LTUgMTIuOC0xMy41di00My40aDE3Ljd2NDMuM2MwIDIwLTE0IDI5LjktMzAuOCAyOS45cy0yOS45LTkuOS0yOS45LTI5Ljl2LTQzLjN6TTMxNC41IDQ2Ni44YzE3LjggMCAyNi42IDEwLjIgMjYuNiAyMi44IDAgOS4xLTUgMTcuNy0xNi4xIDIxbDE2LjcgMjguN2gtMTkuOWwtMTUuMS0yNy40aC00LjJ2MjcuNGgtMTcuN3YtNzIuNWgyOS43em0tMS4xIDE0LjdoLTEwLjl2MThoMTAuOWM2LjYgMCA5LjctMy40IDkuNy05LjEgMC01LjQtMy04LjktOS43LTguOXpNMzk5LjYgNDgwLjloLTI2Ljd2MTQuN2gyMy42djEzLjZoLTIzLjZ2MTUuOWgyNi43djE0LjFoLTQ0LjR2LTcyLjVoNDQuNHYxNC4yek00NTguMSA1MjMuM2gtMzEuNGwtNS44IDE2SDQxMWwyNi03MS41aDEwLjhsMjUuOSA3MS41aC05LjlsLTUuNy0xNnptLTE1LjctNDQtMTMgMzYuM2gyNmwtMTMtMzYuM3pNNDgwLjMgNDY3LjNoOS40djQ1LjVjMCAxMy4yIDcuMSAxOC45IDE3LjggMTguOSAxMC42IDAgMTcuNy01LjcgMTcuNy0xOC45di00NS41aDkuNHY0NS40YzAgMTguNy0xMi4zIDI3LjMtMjcuMiAyNy4zLTE0LjkgMC0yNy04LjYtMjctMjcuM3YtNDUuNHpNNTQ4LjcgNDY3LjNoNDguN3Y3LjZoLTE5LjZ2NjQuM2gtOS40VjQ3NWgtMTkuN3YtNy43ek02NTguMSA1MDYuN2gtMzYuNnYzMi42SDYxMnYtNzJoOS40djMxLjZINjU4di0zMS42aDkuNHY3Mkg2NTh2LTMyLjZ6Ii8+PC9nPjwvc3ZnPg==;" vertex="1" parent="Pk0htFhTyhocqy62iQJ8-3">
          <mxGeometry x="54.08" y="85" width="61.85" height="50" as="geometry" />
        </mxCell>
        <mxCell id="Pk0htFhTyhocqy62iQJ8-75" value="" style="fillColor=none;strokeColor=#5A6C86;dashed=1;verticalAlign=top;fontStyle=0;fontColor=#5A6C86;whiteSpace=wrap;html=1;fontFamily=Helvetica;fontSize=11;labelBackgroundColor=default;rounded=1;" vertex="1" parent="Pk0htFhTyhocqy62iQJ8-3">
          <mxGeometry x="40" y="80" width="90" height="60" as="geometry" />
        </mxCell>
        <mxCell id="Pk0htFhTyhocqy62iQJ8-76" value="" style="shape=image;html=1;verticalAlign=top;verticalLabelPosition=bottom;labelBackgroundColor=#ffffff;imageAspect=0;aspect=fixed;image=https://cdn1.iconfinder.com/data/icons/unicons-line-vol-3/24/exclamation-circle-128.png;fontFamily=Helvetica;fontSize=11;fontColor=default;imageBackground=none;imageBorder=none;" vertex="1" parent="Pk0htFhTyhocqy62iQJ8-3">
          <mxGeometry x="45" y="85" width="8" height="8" as="geometry" />
        </mxCell>
        <mxCell id="Pk0htFhTyhocqy62iQJ8-77" value="- Assume all users authenticated through SecureAuth." style="shape=image;html=1;verticalAlign=top;verticalLabelPosition=bottom;labelBackgroundColor=none;imageAspect=0;aspect=fixed;image=https://cdn1.iconfinder.com/data/icons/unicons-line-vol-3/24/exclamation-circle-128.png;fontFamily=Helvetica;fontSize=8;fontColor=default;imageBackground=none;imageBorder=none;align=left;spacingTop=-15;spacingLeft=7;fontStyle=0" vertex="1" parent="Pk0htFhTyhocqy62iQJ8-3">
          <mxGeometry x="20" y="486" width="8" height="8" as="geometry" />
        </mxCell>
      </root>
    </mxGraphModel>
  </diagram>
</mxfile>
